<svg width="512" height="513" viewBox="0 0 512 513" fill="none" xmlns="http://www.w3.org/2000/svg">
<rect x="11.8169" y="10.4516" width="459.87" height="461.363" fill="#DBA538"/>
<path d="M14.1066 4.97695C10.5232 7.76403 5.54627 13.5373 3.5555 17.5188C-0.226979 24.6856 -0.226979 31.2552 0.171176 241.68C0.569332 415.475 1.16656 459.87 3.15734 464.847C6.34259 472.013 19.4817 483.759 24.6577 483.759C26.8476 483.759 29.8338 486.944 32.4218 492.518C34.8107 497.893 39.7876 503.667 44.5655 507.051L52.7277 512.625H271.912H491.097L497.467 508.046C500.852 505.657 505.63 500.681 507.819 496.898C512 490.328 512 489.333 512 272.737C512 76.4459 511.602 54.7464 508.815 48.575C505.63 42.2045 500.254 36.6303 490.301 29.8617C487.713 28.269 484.129 23.4912 481.939 19.3105C479.749 15.329 474.374 9.15758 469.796 5.97233L461.633 1.80304e-06H241.254H21.0743L14.1066 4.97695ZM464.62 17.7179L471.189 23.4912V241.879V460.268L464.62 466.041L458.249 471.814H241.453H24.6577L18.4863 466.041L12.3149 460.268V241.879V23.4912L18.0882 17.7179L23.8614 11.9447H241.055H458.249L464.62 17.7179Z" fill="black"/>
<path d="M101.104 157.67C100.506 159.063 99.7101 162.447 99.1129 165.235C98.7147 168.022 92.7424 186.337 85.9737 206.045C79.2051 225.754 72.8346 244.467 72.0383 247.852C71.0429 251.037 64.8715 269.949 58.3019 289.459C51.5333 309.168 46.1582 325.89 46.1582 326.886C46.1582 327.881 57.1075 328.279 70.4457 328.08L94.9322 327.483L99.9092 310.959L104.687 294.635H131.961H159.234L164.609 311.557L169.985 328.478H194.67H219.356L217.962 321.909C217.365 318.524 215.972 313.946 214.976 311.955C213.981 310.163 210.596 300.209 207.411 290.056C204.226 280.102 199.05 264.176 195.865 254.82C192.679 245.463 186.309 226.75 181.73 213.013C177.151 199.277 171.179 180.962 167.994 172.202L162.619 156.276L132.16 155.679C108.868 155.281 101.701 155.679 101.104 157.67ZM139.128 216.995C141.915 227.347 144.901 237.301 145.697 238.893C146.493 240.486 147.887 245.662 148.683 250.241L150.077 258.801H132.956C123.799 258.801 115.636 258.005 114.84 257.009C114.243 256.014 115.039 251.634 116.831 247.454C118.423 243.273 120.613 236.305 121.609 231.926C122.803 227.546 124.993 218.986 126.586 213.013C128.178 207.041 130.169 199.277 130.965 196.092C132.16 191.314 132.558 190.916 133.155 194.101C133.553 196.291 136.141 206.643 139.128 216.995Z" fill="black"/>
<path d="M235.282 241.879V328.478H256.185H277.089L277.487 293.042C277.885 248.648 277.089 209.231 275.894 204.055C275.098 200.869 275.297 200.67 276.889 203.059C278.084 204.652 279.079 208.235 279.079 210.823C279.079 213.411 280.473 220.18 281.866 225.754C286.843 242.676 302.969 302.598 307.149 318.923L309.538 328.478H331.835H354.331L357.516 318.923C361.099 308.172 365.877 290.454 369.66 274.727C372.646 261.19 386.581 208.434 387.179 207.837C387.378 207.638 387.179 234.713 386.979 267.959L386.183 328.478H408.281H430.378V241.879V155.281H397.73C361.498 155.281 364.086 154.285 360.701 170.211C359.905 174.591 355.724 190.716 351.743 206.045C347.562 221.374 342.187 241.879 339.798 251.435C337.21 261.19 334.821 269.551 334.224 270.148C333.627 270.746 331.636 265.968 329.844 259.597C328.052 253.028 325.464 243.87 323.872 238.893C322.478 233.916 319.293 222.37 316.904 213.013C314.515 203.657 311.33 192.11 309.936 187.133C308.543 182.156 306.751 175.387 306.154 172.202C305.358 168.818 303.765 163.841 302.57 160.656L300.58 155.281H267.931H235.282V241.879Z" fill="black"/>
</svg>
